<svg width="84" height="93" viewBox="0 0 84 93" fill="none" xmlns="http://www.w3.org/2000/svg">
<path d="M42.1665 5.88745C34.7497 5.88745 27.4995 8.08679 21.3326 12.2073C15.1658 16.3279 10.3593 22.1846 7.52104 29.0368C4.68275 35.889 3.94013 43.429 5.38707 50.7033C6.83402 57.9776 10.4055 64.6595 15.65 69.9039C20.8945 75.1484 27.5763 78.7199 34.8506 80.1669C42.1249 81.6138 49.6649 80.8712 56.5171 78.0329C63.3694 75.1946 69.2261 70.3882 73.3466 64.2213C77.4672 58.0545 79.6665 50.8042 79.6665 43.3874C79.6665 33.4418 75.7156 23.9036 68.683 16.8709C61.6504 9.83833 52.1121 5.88745 42.1665 5.88745ZM66.6587 30.8015L35.8618 61.5749L17.6743 43.3874C17.0527 42.7658 16.7035 41.9228 16.7035 41.0437C16.7035 40.1646 17.0527 39.3215 17.6743 38.6999C18.2959 38.0783 19.139 37.7291 20.0181 37.7291C20.8972 37.7291 21.7402 38.0783 22.3618 38.6999L35.9087 52.2468L62.0181 26.1609C62.3259 25.8531 62.6913 25.6089 63.0934 25.4424C63.4955 25.2758 63.9265 25.1901 64.3618 25.1901C64.7971 25.1901 65.2281 25.2758 65.6302 25.4424C66.0324 25.6089 66.3978 25.8531 66.7056 26.1609C67.0134 26.4687 67.2575 26.8341 67.4241 27.2362C67.5907 27.6383 67.6764 28.0694 67.6764 28.5046C67.6764 28.9399 67.5907 29.3709 67.4241 29.7731C67.2575 30.1752 67.0134 30.5406 66.7056 30.8484L66.6587 30.8015Z" fill="#1AAB1E"/>
</svg>
